<svg xmlns="http://www.w3.org/2000/svg" viewBox="0 0 560 210" width="100%" height="210" style="max-width:560px;font-family:Arial,sans-serif;"><path d="M4.0,130.0 L4.0,122.1 L22.9,121.1 L41.8,123.8 L60.7,121.4 L79.6,108.5 L98.4,108.5 L117.3,83.7 L136.2,91.3 L155.1,130.0 L174.0,123.9 L192.9,122.5 L211.8,122.1 L230.7,116.6 L249.6,111.9 L268.4,111.9 L287.3,77.6 L306.2,93.2 L325.1,93.2 L344.0,93.2 L362.9,59.6 L381.8,74.6 L400.7,86.5 L419.6,75.0 L438.4,80.0 L457.3,48.9 L476.2,39.2 L495.1,41.7 L514.0,20.0 L514.0,130.0 Z" fill="#0052cc" opacity="0.10"/><path d="M4.0,122.1 L22.9,121.1 L41.8,123.8 L60.7,121.4 L79.6,108.5 L98.4,108.5 L117.3,83.7 L136.2,91.3 L155.1,130.0 L174.0,123.9 L192.9,122.5 L211.8,122.1 L230.7,116.6 L249.6,111.9 L268.4,111.9 L287.3,77.6 L306.2,93.2 L325.1,93.2 L344.0,93.2 L362.9,59.6 L381.8,74.6 L400.7,86.5 L419.6,75.0 L438.4,80.0 L457.3,48.9 L476.2,39.2 L495.1,41.7 L514.0,20.0" fill="none" stroke="#0052cc" stroke-width="2" stroke-linejoin="round" stroke-linecap="round"/><line x1="514.0" y1="20.0" x2="514.0" y2="130.0" stroke="#e34948" stroke-width="1" stroke-dasharray="3,3"/><circle cx="514.0" cy="20.0" r="4.5" fill="#e34948" stroke="#fcfcfb" stroke-width="2"/><text x="508.0" y="14.0" text-anchor="end" font-size="10" font-weight="bold" fill="#e34948">Kauf 209.98</text><text x="522.0" y="23.0" font-size="10.5" font-weight="bold" fill="#0b0b0b">208.53</text><text x="4.0" y="200.0" text-anchor="start" font-size="9" fill="#898781">2026-02-23</text><text x="514.0" y="200.0" text-anchor="end" font-size="9" fill="#898781">2026-08-31</text><rect x="-1.2" y="177.5" width="10.4" height="6.5" fill="#c3c2b7"/><rect x="17.7" y="178.6" width="10.4" height="5.4" fill="#c3c2b7"/><rect x="36.6" y="174.3" width="10.4" height="9.7" fill="#c3c2b7"/><rect x="55.5" y="149.4" width="10.4" height="34.6" fill="#c3c2b7"/><rect x="74.4" y="180.8" width="10.4" height="3.2" fill="#c3c2b7"/><rect x="93.2" y="184.0" width="10.4" height="1.0" fill="#c3c2b7"/><rect x="112.1" y="178.6" width="10.4" height="5.4" fill="#c3c2b7"/><rect x="131.0" y="181.8" width="10.4" height="2.2" fill="#c3c2b7"/><rect x="149.9" y="173.2" width="10.4" height="10.8" fill="#c3c2b7"/><rect x="168.8" y="144.0" width="10.4" height="40.0" fill="#c3c2b7"/><rect x="187.7" y="179.7" width="10.4" height="4.3" fill="#c3c2b7"/><rect x="206.6" y="178.6" width="10.4" height="5.4" fill="#c3c2b7"/><rect x="225.5" y="176.4" width="10.4" height="7.6" fill="#c3c2b7"/><rect x="244.4" y="180.8" width="10.4" height="3.2" fill="#c3c2b7"/><rect x="263.2" y="184.0" width="10.4" height="1.0" fill="#c3c2b7"/><rect x="282.1" y="178.6" width="10.4" height="5.4" fill="#c3c2b7"/><rect x="301.0" y="148.3" width="10.4" height="35.7" fill="#c3c2b7"/><rect x="319.9" y="184.0" width="10.4" height="1.0" fill="#c3c2b7"/><rect x="338.8" y="184.0" width="10.4" height="1.0" fill="#c3c2b7"/><rect x="357.7" y="181.8" width="10.4" height="2.2" fill="#c3c2b7"/><rect x="376.6" y="178.6" width="10.4" height="5.4" fill="#c3c2b7"/><rect x="395.5" y="176.4" width="10.4" height="7.6" fill="#c3c2b7"/><rect x="414.4" y="176.4" width="10.4" height="7.6" fill="#c3c2b7"/><rect x="433.2" y="180.8" width="10.4" height="3.2" fill="#c3c2b7"/><rect x="452.1" y="163.5" width="10.4" height="20.5" fill="#c3c2b7"/><rect x="471.0" y="179.7" width="10.4" height="4.3" fill="#c3c2b7"/><rect x="489.9" y="168.9" width="10.4" height="15.1" fill="#c3c2b7"/><rect x="508.8" y="170.6" width="10.4" height="13.4" fill="#e34948"/></svg>