<svg xmlns="http://www.w3.org/2000/svg" viewBox="0 0 560 210" width="100%" height="210" style="max-width:560px;font-family:Arial,sans-serif;"><path d="M4.0,130.0 L4.0,130.0 L22.9,116.6 L41.8,113.6 L60.7,122.2 L79.6,126.0 L98.4,120.4 L117.3,115.4 L136.2,116.2 L155.1,112.7 L174.0,113.9 L192.9,102.5 L211.8,100.7 L230.7,96.4 L249.6,87.7 L268.4,97.0 L287.3,89.4 L306.2,95.3 L325.1,90.6 L344.0,48.0 L362.9,53.4 L381.8,55.9 L400.7,52.7 L419.6,52.8 L438.4,57.4 L457.3,56.8 L476.2,40.5 L495.1,20.0 L514.0,24.2 L514.0,130.0 Z" fill="#0052cc" opacity="0.10"/><path d="M4.0,130.0 L22.9,116.6 L41.8,113.6 L60.7,122.2 L79.6,126.0 L98.4,120.4 L117.3,115.4 L136.2,116.2 L155.1,112.7 L174.0,113.9 L192.9,102.5 L211.8,100.7 L230.7,96.4 L249.6,87.7 L268.4,97.0 L287.3,89.4 L306.2,95.3 L325.1,90.6 L344.0,48.0 L362.9,53.4 L381.8,55.9 L400.7,52.7 L419.6,52.8 L438.4,57.4 L457.3,56.8 L476.2,40.5 L495.1,20.0 L514.0,24.2" fill="none" stroke="#0052cc" stroke-width="2" stroke-linejoin="round" stroke-linecap="round"/><line x1="514.0" y1="20.0" x2="514.0" y2="130.0" stroke="#e34948" stroke-width="1" stroke-dasharray="3,3"/><circle cx="514.0" cy="24.2" r="4.5" fill="#e34948" stroke="#fcfcfb" stroke-width="2"/><text x="508.0" y="14.0" text-anchor="end" font-size="10" font-weight="bold" fill="#e34948">Kauf 52.50</text><text x="522.0" y="27.2" font-size="10.5" font-weight="bold" fill="#0b0b0b">50.19</text><text x="4.0" y="200.0" text-anchor="start" font-size="9" fill="#898781">2026-03-30</text><text x="514.0" y="200.0" text-anchor="end" font-size="9" fill="#898781">2026-10-05</text><rect x="-1.2" y="177.8" width="10.4" height="6.2" fill="#c3c2b7"/><rect x="17.7" y="167.3" width="10.4" height="16.7" fill="#c3c2b7"/><rect x="36.6" y="174.8" width="10.4" height="9.2" fill="#c3c2b7"/><rect x="55.5" y="162.8" width="10.4" height="21.2" fill="#c3c2b7"/><rect x="74.4" y="173.6" width="10.4" height="10.4" fill="#c3c2b7"/><rect x="93.2" y="171.5" width="10.4" height="12.5" fill="#c3c2b7"/><rect x="112.1" y="168.4" width="10.4" height="15.6" fill="#c3c2b7"/><rect x="131.0" y="170.2" width="10.4" height="13.8" fill="#c3c2b7"/><rect x="149.9" y="170.1" width="10.4" height="13.9" fill="#c3c2b7"/><rect x="168.8" y="173.2" width="10.4" height="10.8" fill="#c3c2b7"/><rect x="187.7" y="161.6" width="10.4" height="22.4" fill="#c3c2b7"/><rect x="206.6" y="167.9" width="10.4" height="16.1" fill="#c3c2b7"/><rect x="225.5" y="154.8" width="10.4" height="29.2" fill="#c3c2b7"/><rect x="244.4" y="172.3" width="10.4" height="11.7" fill="#c3c2b7"/><rect x="263.2" y="167.8" width="10.4" height="16.2" fill="#c3c2b7"/><rect x="282.1" y="169.7" width="10.4" height="14.3" fill="#c3c2b7"/><rect x="301.0" y="167.8" width="10.4" height="16.2" fill="#c3c2b7"/><rect x="319.9" y="168.7" width="10.4" height="15.3" fill="#c3c2b7"/><rect x="338.8" y="152.1" width="10.4" height="31.9" fill="#c3c2b7"/><rect x="357.7" y="158.7" width="10.4" height="25.3" fill="#c3c2b7"/><rect x="376.6" y="163.0" width="10.4" height="21.0" fill="#c3c2b7"/><rect x="395.5" y="164.7" width="10.4" height="19.3" fill="#c3c2b7"/><rect x="414.4" y="161.6" width="10.4" height="22.4" fill="#c3c2b7"/><rect x="433.2" y="166.0" width="10.4" height="18.0" fill="#c3c2b7"/><rect x="452.1" y="149.8" width="10.4" height="34.2" fill="#c3c2b7"/><rect x="471.0" y="156.7" width="10.4" height="27.3" fill="#c3c2b7"/><rect x="489.9" y="144.0" width="10.4" height="40.0" fill="#c3c2b7"/><rect x="508.8" y="178.2" width="10.4" height="5.8" fill="#e34948"/></svg>